<svg xmlns="http://www.w3.org/2000/svg" version="1.1" xmlns:xlink="http://www.w3.org/1999/xlink" xmlns:svgjs="http://svgjs.com/svgjs" width="1920" height="1080" preserveAspectRatio="none" viewBox="0 0 1920 1080"><g mask="url(&quot;#SvgjsMask1135&quot;)" fill="none"><rect width="1920" height="1080" x="0" y="0" fill="rgba(96, 233, 235, 1)"></rect><path d="M0,658.372C158.456,652.062,310.199,764.521,462.138,719.101C631.699,668.414,814.195,565.418,871.302,397.91C928.468,230.229,783.804,65.636,743.751,-106.935C707.993,-261,743.027,-435.128,648.521,-561.947C551.854,-691.666,383.583,-734.184,232.746,-792.661C68.548,-856.318,-104.032,-978.115,-269.505,-917.849C-435.424,-857.42,-462.987,-634.756,-575.191,-498.406C-683.467,-366.829,-865.133,-294.266,-916.388,-131.757C-970.22,38.923,-933.578,229.652,-855.628,390.752C-778.577,549.995,-655.254,704.068,-486.415,756.877C-325.265,807.281,-168.715,665.091,0,658.372" fill="#25e1e4"></path><path d="M1920 1944.219C2078.072 1926.8400000000001 2182.349 1780.6509999999998 2306.088 1680.7649999999999 2415.831 1592.1770000000001 2527.443 1510.867 2603.765 1392.2649999999999 2689.547 1258.964 2781.651 1115.767 2771.473 957.577 2761.042 795.463 2674.877 637.519 2548.625 535.293 2429.641 438.952 2264.973 438.89599999999996 2112.594 424.08500000000004 1984.902 411.673 1863.733 437.139 1736.892 456.39300000000003 1588.335 478.94399999999996 1419.908 450.41600000000005 1304.5839999999998 546.739 1185.681 646.0509999999999 1164.211 815.617 1126.809 965.956 1085.5720000000001 1131.711 1008.269 1308.636 1076.03 1465.4279999999999 1143.972 1622.6390000000001 1326.2440000000001 1687.606 1475.2060000000001 1772.114 1616.34 1852.1799999999998 1758.709 1961.952 1920 1944.219" fill="#9bf1f2"></path></g><defs><mask id="SvgjsMask1135"><rect width="1920" height="1080" fill="#ffffff"></rect></mask></defs></svg>